# xmcd
#
# Track frame offsets:
#	150
#	14522
#	27727
#	42667
#	58521
#	71554
#	85969
#	99571
#	116030
#	135478
#	147439
#	159058
#	173887
#	188589
#	201873
#	216101
#	230860
#	246857
#
# Disc length: 3483 seconds
#
# Revision: 1
# Processed by: cddbd v1.5.2PL0 Copyright (c) Steve Scherf et al.
# Submitted via: audiograbber 1.83.01
#
DISCID=090d9912
DTITLE=Kanika Banerjee - Kanika Banerjee - Golden Hours
DYEAR=1900
DGENRE=
TTITLE0=Anandadhara Bohichhe Bhubane
TTITLE1=Aaj Jemon Kore Gaichhe Akash
TTITLE2=Bimal Anande Jago
TTITLE3=Tomay Gaan Shonabo
TTITLE4=Tumi Khushi Thako
TTITLE5=Amar Mallikabone
TTITLE6=Amar Je Sab Dite Habe
TTITLE7=Barota Peyechhi Mone Mone
TTITLE8=Tomar Ei Madhuri Chhapiye Akash
TTITLE9=Dujane Dakha Holo
TTITLE10=De Lo, Sakhi, De
TTITLE11=Rohi Rohi Anandataranga Rage
TTITLE12=Dariye Achho Tumi Amar
TTITLE13=Eshechhile Tobu Aaso nai
TTITLE14=Tumi Kichhu Diye Jao
TTITLE15=Biraho Madhur Holo
TTITLE16=Haar Manale Go
TTITLE17=Peyechhi Chhuti Biday Deho
EXTD=
EXTT0=
EXTT1=
EXTT2=
EXTT3=
EXTT4=
EXTT5=
EXTT6=
EXTT7=
EXTT8=
EXTT9=
EXTT10=
EXTT11=
EXTT12=
EXTT13=
EXTT14=
EXTT15=
EXTT16=
EXTT17=
PLAYORDER=
